solid OpenSCAD_Model
  facet normal -1 0 0
    outer loop
      vertex 11.4 -2.5 0
      vertex 11.4 0.2 2.5
      vertex 11.4 0.2 0
    endloop
  endfacet
  facet normal -1 -0 0
    outer loop
      vertex 11.4 0.2 2.5
      vertex 11.4 -2.5 0
      vertex 11.4 -2.5 2.5
    endloop
  endfacet
  facet normal -1 0 0
    outer loop
      vertex 11.4 27.8 0
      vertex 11.4 30.5 2.5
      vertex 11.4 30.5 0
    endloop
  endfacet
  facet normal -1 -0 0
    outer loop
      vertex 11.4 30.5 2.5
      vertex 11.4 27.8 0
      vertex 11.4 27.8 2.5
    endloop
  endfacet
  facet normal -0 0 1
    outer loop
      vertex -2.5 18.6667 2.5
      vertex 0.2 9.33333 2.5
      vertex 0.2 18.6667 2.5
    endloop
  endfacet
  facet normal 0 0 1
    outer loop
      vertex 0.2 9.33333 2.5
      vertex -2.5 18.6667 2.5
      vertex -2.5 9.33333 2.5
    endloop
  endfacet
  facet normal -0 0 1
    outer loop
      vertex 56.8 18.6667 2.5
      vertex 59.5 9.33333 2.5
      vertex 59.5 18.6667 2.5
    endloop
  endfacet
  facet normal 0 0 1
    outer loop
      vertex 59.5 9.33333 2.5
      vertex 56.8 18.6667 2.5
      vertex 56.8 9.33333 2.5
    endloop
  endfacet
  facet normal -0 0 1
    outer loop
      vertex 34.2 0.2 2.5
      vertex 45.6 -2.5 2.5
      vertex 45.6 0.2 2.5
    endloop
  endfacet
  facet normal 0 0 1
    outer loop
      vertex 45.6 -2.5 2.5
      vertex 34.2 0.2 2.5
      vertex 34.2 -2.5 2.5
    endloop
  endfacet
  facet normal -0 0 1
    outer loop
      vertex 34.2 30.5 2.5
      vertex 45.6 27.8 2.5
      vertex 45.6 30.5 2.5
    endloop
  endfacet
  facet normal 0 0 1
    outer loop
      vertex 45.6 27.8 2.5
      vertex 34.2 30.5 2.5
      vertex 34.2 27.8 2.5
    endloop
  endfacet
  facet normal -0 0 1
    outer loop
      vertex 11.4 0.2 2.5
      vertex 22.8 -2.5 2.5
      vertex 22.8 0.2 2.5
    endloop
  endfacet
  facet normal 0 0 1
    outer loop
      vertex 22.8 -2.5 2.5
      vertex 11.4 0.2 2.5
      vertex 11.4 -2.5 2.5
    endloop
  endfacet
  facet normal -0 0 1
    outer loop
      vertex 11.4 30.5 2.5
      vertex 22.8 27.8 2.5
      vertex 22.8 30.5 2.5
    endloop
  endfacet
  facet normal 0 0 1
    outer loop
      vertex 22.8 27.8 2.5
      vertex 11.4 30.5 2.5
      vertex 11.4 27.8 2.5
    endloop
  endfacet
  facet normal -0 0 1
    outer loop
      vertex 1.45 26.55 2.5
      vertex 55.55 1.45 2.5
      vertex 55.55 26.55 2.5
    endloop
  endfacet
  facet normal 0 0 1
    outer loop
      vertex 55.55 1.45 2.5
      vertex 1.45 26.55 2.5
      vertex 1.45 1.45 2.5
    endloop
  endfacet
  facet normal 1 -0 0
    outer loop
      vertex 22.8 -2.5 2.5
      vertex 22.8 0.2 0
      vertex 22.8 0.2 2.5
    endloop
  endfacet
  facet normal 1 0 0
    outer loop
      vertex 22.8 0.2 0
      vertex 22.8 -2.5 2.5
      vertex 22.8 -2.5 0
    endloop
  endfacet
  facet normal 1 -0 0
    outer loop
      vertex 22.8 27.8 2.5
      vertex 22.8 30.5 0
      vertex 22.8 30.5 2.5
    endloop
  endfacet
  facet normal 1 0 0
    outer loop
      vertex 22.8 30.5 0
      vertex 22.8 27.8 2.5
      vertex 22.8 27.8 0
    endloop
  endfacet
  facet normal 0 0 -1
    outer loop
      vertex -2.5 9.33333 0
      vertex 0.2 18.6667 0
      vertex 0.2 9.33333 0
    endloop
  endfacet
  facet normal -0 0 -1
    outer loop
      vertex 0.2 18.6667 0
      vertex -2.5 9.33333 0
      vertex -2.5 18.6667 0
    endloop
  endfacet
  facet normal 0 0 -1
    outer loop
      vertex 0.2 9.33333 0
      vertex 11.4 0.2 0
      vertex 0.2 0.2 0
    endloop
  endfacet
  facet normal 0 0 -1
    outer loop
      vertex 11.4 0.2 0
      vertex 0.2 9.33333 0
      vertex 11.4 27.8 0
    endloop
  endfacet
  facet normal 0 0 -1
    outer loop
      vertex 0.2 18.6667 0
      vertex 11.4 27.8 0
      vertex 0.2 9.33333 0
    endloop
  endfacet
  facet normal -0 0 -1
    outer loop
      vertex 11.4 27.8 0
      vertex 0.2 18.6667 0
      vertex 0.2 27.8 0
    endloop
  endfacet
  facet normal 0 0 -1
    outer loop
      vertex 11.4 0.2 0
      vertex 22.8 0.2 0
      vertex 22.8 -2.5 0
    endloop
  endfacet
  facet normal 0 0 -1
    outer loop
      vertex 22.8 0.2 0
      vertex 11.4 0.2 0
      vertex 22.8 27.8 0
    endloop
  endfacet
  facet normal 0 0 -1
    outer loop
      vertex 11.4 0.2 0
      vertex 22.8 -2.5 0
      vertex 11.4 -2.5 0
    endloop
  endfacet
  facet normal 0 0 -1
    outer loop
      vertex 11.4 27.8 0
      vertex 22.8 27.8 0
      vertex 11.4 0.2 0
    endloop
  endfacet
  facet normal 0 0 -1
    outer loop
      vertex 22.8 27.8 0
      vertex 11.4 27.8 0
      vertex 22.8 30.5 0
    endloop
  endfacet
  facet normal -0 0 -1
    outer loop
      vertex 22.8 30.5 0
      vertex 11.4 27.8 0
      vertex 11.4 30.5 0
    endloop
  endfacet
  facet normal 0 0 -1
    outer loop
      vertex 22.8 0.2 0
      vertex 34.2 27.8 0
      vertex 34.2 0.2 0
    endloop
  endfacet
  facet normal -0 0 -1
    outer loop
      vertex 34.2 27.8 0
      vertex 22.8 0.2 0
      vertex 22.8 27.8 0
    endloop
  endfacet
  facet normal 0 0 -1
    outer loop
      vertex 34.2 0.2 0
      vertex 45.6 0.2 0
      vertex 45.6 -2.5 0
    endloop
  endfacet
  facet normal 0 0 -1
    outer loop
      vertex 45.6 0.2 0
      vertex 34.2 0.2 0
      vertex 45.6 27.8 0
    endloop
  endfacet
  facet normal 0 0 -1
    outer loop
      vertex 34.2 0.2 0
      vertex 45.6 -2.5 0
      vertex 34.2 -2.5 0
    endloop
  endfacet
  facet normal 0 0 -1
    outer loop
      vertex 34.2 27.8 0
      vertex 45.6 27.8 0
      vertex 34.2 0.2 0
    endloop
  endfacet
  facet normal 0 0 -1
    outer loop
      vertex 45.6 27.8 0
      vertex 34.2 27.8 0
      vertex 45.6 30.5 0
    endloop
  endfacet
  facet normal -0 0 -1
    outer loop
      vertex 45.6 30.5 0
      vertex 34.2 27.8 0
      vertex 34.2 30.5 0
    endloop
  endfacet
  facet normal 0 0 -1
    outer loop
      vertex 45.6 0.2 0
      vertex 56.8 9.33333 0
      vertex 56.8 0.2 0
    endloop
  endfacet
  facet normal -0 0 -1
    outer loop
      vertex 56.8 9.33333 0
      vertex 45.6 0.2 0
      vertex 56.8 18.6667 0
    endloop
  endfacet
  facet normal 0 0 -1
    outer loop
      vertex 45.6 27.8 0
      vertex 56.8 18.6667 0
      vertex 45.6 0.2 0
    endloop
  endfacet
  facet normal 0 0 -1
    outer loop
      vertex 56.8 18.6667 0
      vertex 45.6 27.8 0
      vertex 56.8 27.8 0
    endloop
  endfacet
  facet normal 0 0 -1
    outer loop
      vertex 56.8 9.33333 0
      vertex 59.5 18.6667 0
      vertex 59.5 9.33333 0
    endloop
  endfacet
  facet normal -0 0 -1
    outer loop
      vertex 59.5 18.6667 0
      vertex 56.8 9.33333 0
      vertex 56.8 18.6667 0
    endloop
  endfacet
  facet normal 0 -1 0
    outer loop
      vertex 11.4 -2.5 0
      vertex 22.8 -2.5 2.5
      vertex 11.4 -2.5 2.5
    endloop
  endfacet
  facet normal 0 -1 -0
    outer loop
      vertex 22.8 -2.5 2.5
      vertex 11.4 -2.5 0
      vertex 22.8 -2.5 0
    endloop
  endfacet
  facet normal 0 1 -0
    outer loop
      vertex 22.8 30.5 0
      vertex 11.4 30.5 2.5
      vertex 22.8 30.5 2.5
    endloop
  endfacet
  facet normal 0 1 0
    outer loop
      vertex 11.4 30.5 2.5
      vertex 22.8 30.5 0
      vertex 11.4 30.5 0
    endloop
  endfacet
  facet normal -1 0 0
    outer loop
      vertex 34.2 -2.5 0
      vertex 34.2 0.2 2.5
      vertex 34.2 0.2 0
    endloop
  endfacet
  facet normal -1 -0 0
    outer loop
      vertex 34.2 0.2 2.5
      vertex 34.2 -2.5 0
      vertex 34.2 -2.5 2.5
    endloop
  endfacet
  facet normal -1 0 0
    outer loop
      vertex 34.2 27.8 0
      vertex 34.2 30.5 2.5
      vertex 34.2 30.5 0
    endloop
  endfacet
  facet normal -1 -0 0
    outer loop
      vertex 34.2 30.5 2.5
      vertex 34.2 27.8 0
      vertex 34.2 27.8 2.5
    endloop
  endfacet
  facet normal 1 -0 0
    outer loop
      vertex 45.6 -2.5 2.5
      vertex 45.6 0.2 0
      vertex 45.6 0.2 2.5
    endloop
  endfacet
  facet normal 1 0 0
    outer loop
      vertex 45.6 0.2 0
      vertex 45.6 -2.5 2.5
      vertex 45.6 -2.5 0
    endloop
  endfacet
  facet normal 1 -0 0
    outer loop
      vertex 45.6 27.8 2.5
      vertex 45.6 30.5 0
      vertex 45.6 30.5 2.5
    endloop
  endfacet
  facet normal 1 0 0
    outer loop
      vertex 45.6 30.5 0
      vertex 45.6 27.8 2.5
      vertex 45.6 27.8 0
    endloop
  endfacet
  facet normal 0 1 -0
    outer loop
      vertex 45.6 30.5 0
      vertex 34.2 30.5 2.5
      vertex 45.6 30.5 2.5
    endloop
  endfacet
  facet normal 0 1 0
    outer loop
      vertex 34.2 30.5 2.5
      vertex 45.6 30.5 0
      vertex 34.2 30.5 0
    endloop
  endfacet
  facet normal 0 -1 0
    outer loop
      vertex 34.2 -2.5 0
      vertex 45.6 -2.5 2.5
      vertex 34.2 -2.5 2.5
    endloop
  endfacet
  facet normal 0 -1 -0
    outer loop
      vertex 45.6 -2.5 2.5
      vertex 34.2 -2.5 0
      vertex 45.6 -2.5 0
    endloop
  endfacet
  facet normal -1 0 0
    outer loop
      vertex 0.2 9.33333 0
      vertex 0.2 0.2 0
      vertex 0.2 9.33333 2.5
    endloop
  endfacet
  facet normal -1 0 0
    outer loop
      vertex 0.2 18.6667 2.5
      vertex 0.2 27.8 0
      vertex 0.2 18.6667 0
    endloop
  endfacet
  facet normal -1 0 0
    outer loop
      vertex 0.2 27.8 0
      vertex 0.2 18.6667 2.5
      vertex 0.2 27.8 3.75
    endloop
  endfacet
  facet normal -1 0 0
    outer loop
      vertex 0.2 9.33333 2.5
      vertex 0.2 27.8 3.75
      vertex 0.2 18.6667 2.5
    endloop
  endfacet
  facet normal -1 0 0
    outer loop
      vertex 0.2 9.33333 2.5
      vertex 0.2 0.2 3.75
      vertex 0.2 27.8 3.75
    endloop
  endfacet
  facet normal -1 0 0
    outer loop
      vertex 0.2 0.2 3.75
      vertex 0.2 9.33333 2.5
      vertex 0.2 0.2 0
    endloop
  endfacet
  facet normal 1 0 0
    outer loop
      vertex 56.8 27.8 3.75
      vertex 56.8 18.6667 2.5
      vertex 56.8 27.8 0
    endloop
  endfacet
  facet normal 1 0 0
    outer loop
      vertex 56.8 27.8 3.75
      vertex 56.8 9.33333 2.5
      vertex 56.8 18.6667 2.5
    endloop
  endfacet
  facet normal 1 -0 0
    outer loop
      vertex 56.8 0.2 3.75
      vertex 56.8 9.33333 2.5
      vertex 56.8 27.8 3.75
    endloop
  endfacet
  facet normal 1 0 0
    outer loop
      vertex 56.8 0.2 0
      vertex 56.8 9.33333 2.5
      vertex 56.8 0.2 3.75
    endloop
  endfacet
  facet normal 1 0 0
    outer loop
      vertex 56.8 9.33333 2.5
      vertex 56.8 0.2 0
      vertex 56.8 9.33333 0
    endloop
  endfacet
  facet normal 1 0 0
    outer loop
      vertex 56.8 27.8 0
      vertex 56.8 18.6667 2.5
      vertex 56.8 18.6667 0
    endloop
  endfacet
  facet normal 0 1 -0
    outer loop
      vertex 34.2 27.8 0
      vertex 22.8 27.8 2.5
      vertex 34.2 27.8 2.5
    endloop
  endfacet
  facet normal 0 1 0
    outer loop
      vertex 22.8 27.8 2.5
      vertex 34.2 27.8 0
      vertex 22.8 27.8 0
    endloop
  endfacet
  facet normal 0 1 0
    outer loop
      vertex 34.2 27.8 2.5
      vertex 56.8 27.8 3.75
      vertex 45.6 27.8 2.5
    endloop
  endfacet
  facet normal 0 1 -0
    outer loop
      vertex 56.8 27.8 0
      vertex 45.6 27.8 2.5
      vertex 56.8 27.8 3.75
    endloop
  endfacet
  facet normal 0 1 0
    outer loop
      vertex 45.6 27.8 2.5
      vertex 56.8 27.8 0
      vertex 45.6 27.8 0
    endloop
  endfacet
  facet normal 0 1 0
    outer loop
      vertex 56.8 27.8 3.75
      vertex 34.2 27.8 2.5
      vertex 0.2 27.8 3.75
    endloop
  endfacet
  facet normal 0 1 -0
    outer loop
      vertex 22.8 27.8 2.5
      vertex 0.2 27.8 3.75
      vertex 34.2 27.8 2.5
    endloop
  endfacet
  facet normal 0 1 -0
    outer loop
      vertex 11.4 27.8 2.5
      vertex 0.2 27.8 3.75
      vertex 22.8 27.8 2.5
    endloop
  endfacet
  facet normal 0 1 0
    outer loop
      vertex 0.2 27.8 0
      vertex 11.4 27.8 2.5
      vertex 11.4 27.8 0
    endloop
  endfacet
  facet normal 0 1 0
    outer loop
      vertex 11.4 27.8 2.5
      vertex 0.2 27.8 0
      vertex 0.2 27.8 3.75
    endloop
  endfacet
  facet normal 0 -1 0
    outer loop
      vertex 22.8 0.2 0
      vertex 34.2 0.2 2.5
      vertex 22.8 0.2 2.5
    endloop
  endfacet
  facet normal 0 -1 -0
    outer loop
      vertex 34.2 0.2 2.5
      vertex 22.8 0.2 0
      vertex 34.2 0.2 0
    endloop
  endfacet
  facet normal 0 -1 0
    outer loop
      vertex 22.8 0.2 2.5
      vertex 0.2 0.2 3.75
      vertex 11.4 0.2 2.5
    endloop
  endfacet
  facet normal 0 -1 0
    outer loop
      vertex 0.2 0.2 0
      vertex 11.4 0.2 2.5
      vertex 0.2 0.2 3.75
    endloop
  endfacet
  facet normal 0 -1 -0
    outer loop
      vertex 11.4 0.2 2.5
      vertex 0.2 0.2 0
      vertex 11.4 0.2 0
    endloop
  endfacet
  facet normal 0 -1 0
    outer loop
      vertex 0.2 0.2 3.75
      vertex 22.8 0.2 2.5
      vertex 56.8 0.2 3.75
    endloop
  endfacet
  facet normal 0 -1 0
    outer loop
      vertex 34.2 0.2 2.5
      vertex 56.8 0.2 3.75
      vertex 22.8 0.2 2.5
    endloop
  endfacet
  facet normal 0 -1 0
    outer loop
      vertex 45.6 0.2 2.5
      vertex 56.8 0.2 3.75
      vertex 34.2 0.2 2.5
    endloop
  endfacet
  facet normal 0 -1 0
    outer loop
      vertex 56.8 0.2 0
      vertex 45.6 0.2 2.5
      vertex 45.6 0.2 0
    endloop
  endfacet
  facet normal 0 -1 0
    outer loop
      vertex 45.6 0.2 2.5
      vertex 56.8 0.2 0
      vertex 56.8 0.2 3.75
    endloop
  endfacet
  facet normal 0 0 1
    outer loop
      vertex 56.8 27.8 3.75
      vertex 55.55 26.55 3.75
      vertex 56.8 0.2 3.75
    endloop
  endfacet
  facet normal 0 0 1
    outer loop
      vertex 56.8 27.8 3.75
      vertex 1.45 26.55 3.75
      vertex 55.55 26.55 3.75
    endloop
  endfacet
  facet normal 0 0 1
    outer loop
      vertex 1.45 26.55 3.75
      vertex 0.2 27.8 3.75
      vertex 1.45 1.45 3.75
    endloop
  endfacet
  facet normal -0 0 1
    outer loop
      vertex 0.2 27.8 3.75
      vertex 1.45 26.55 3.75
      vertex 56.8 27.8 3.75
    endloop
  endfacet
  facet normal -0 0 1
    outer loop
      vertex 55.55 1.45 3.75
      vertex 56.8 0.2 3.75
      vertex 55.55 26.55 3.75
    endloop
  endfacet
  facet normal -0 0 1
    outer loop
      vertex 1.45 1.45 3.75
      vertex 56.8 0.2 3.75
      vertex 55.55 1.45 3.75
    endloop
  endfacet
  facet normal 0 0 1
    outer loop
      vertex 1.45 1.45 3.75
      vertex 0.2 0.2 3.75
      vertex 56.8 0.2 3.75
    endloop
  endfacet
  facet normal 0 0 1
    outer loop
      vertex 0.2 0.2 3.75
      vertex 1.45 1.45 3.75
      vertex 0.2 27.8 3.75
    endloop
  endfacet
  facet normal 0 -1 0
    outer loop
      vertex 1.45 26.55 2.5
      vertex 55.55 26.55 3.75
      vertex 1.45 26.55 3.75
    endloop
  endfacet
  facet normal 0 -1 -0
    outer loop
      vertex 55.55 26.55 3.75
      vertex 1.45 26.55 2.5
      vertex 55.55 26.55 2.5
    endloop
  endfacet
  facet normal 0 1 -0
    outer loop
      vertex 55.55 1.45 2.5
      vertex 1.45 1.45 3.75
      vertex 55.55 1.45 3.75
    endloop
  endfacet
  facet normal 0 1 0
    outer loop
      vertex 1.45 1.45 3.75
      vertex 55.55 1.45 2.5
      vertex 1.45 1.45 2.5
    endloop
  endfacet
  facet normal 1 -0 0
    outer loop
      vertex 1.45 1.45 3.75
      vertex 1.45 26.55 2.5
      vertex 1.45 26.55 3.75
    endloop
  endfacet
  facet normal 1 0 0
    outer loop
      vertex 1.45 26.55 2.5
      vertex 1.45 1.45 3.75
      vertex 1.45 1.45 2.5
    endloop
  endfacet
  facet normal -1 0 0
    outer loop
      vertex 55.55 1.45 2.5
      vertex 55.55 26.55 3.75
      vertex 55.55 26.55 2.5
    endloop
  endfacet
  facet normal -1 -0 0
    outer loop
      vertex 55.55 26.55 3.75
      vertex 55.55 1.45 2.5
      vertex 55.55 1.45 3.75
    endloop
  endfacet
  facet normal -1 0 0
    outer loop
      vertex -2.5 9.33333 0
      vertex -2.5 18.6667 2.5
      vertex -2.5 18.6667 0
    endloop
  endfacet
  facet normal -1 -0 0
    outer loop
      vertex -2.5 18.6667 2.5
      vertex -2.5 9.33333 0
      vertex -2.5 9.33333 2.5
    endloop
  endfacet
  facet normal 1 -0 0
    outer loop
      vertex 59.5 9.33333 2.5
      vertex 59.5 18.6667 0
      vertex 59.5 18.6667 2.5
    endloop
  endfacet
  facet normal 1 0 0
    outer loop
      vertex 59.5 18.6667 0
      vertex 59.5 9.33333 2.5
      vertex 59.5 9.33333 0
    endloop
  endfacet
  facet normal 0 1 -0
    outer loop
      vertex 59.5 18.6667 0
      vertex 56.8 18.6667 2.5
      vertex 59.5 18.6667 2.5
    endloop
  endfacet
  facet normal 0 1 0
    outer loop
      vertex 56.8 18.6667 2.5
      vertex 59.5 18.6667 0
      vertex 56.8 18.6667 0
    endloop
  endfacet
  facet normal 0 1 -0
    outer loop
      vertex 0.2 18.6667 0
      vertex -2.5 18.6667 2.5
      vertex 0.2 18.6667 2.5
    endloop
  endfacet
  facet normal 0 1 0
    outer loop
      vertex -2.5 18.6667 2.5
      vertex 0.2 18.6667 0
      vertex -2.5 18.6667 0
    endloop
  endfacet
  facet normal 0 -1 0
    outer loop
      vertex -2.5 9.33333 0
      vertex 0.2 9.33333 2.5
      vertex -2.5 9.33333 2.5
    endloop
  endfacet
  facet normal 0 -1 -0
    outer loop
      vertex 0.2 9.33333 2.5
      vertex -2.5 9.33333 0
      vertex 0.2 9.33333 0
    endloop
  endfacet
  facet normal 0 -1 0
    outer loop
      vertex 56.8 9.33333 0
      vertex 59.5 9.33333 2.5
      vertex 56.8 9.33333 2.5
    endloop
  endfacet
  facet normal 0 -1 -0
    outer loop
      vertex 59.5 9.33333 2.5
      vertex 56.8 9.33333 0
      vertex 59.5 9.33333 0
    endloop
  endfacet
endsolid OpenSCAD_Model
