solid OpenSCAD_Model
  facet normal -1 0 0
    outer loop
      vertex -3.95 -3.95 -1
      vertex -3.95 31.95 11
      vertex -3.95 31.95 -1
    endloop
  endfacet
  facet normal -1 -0 0
    outer loop
      vertex -3.95 31.95 11
      vertex -3.95 -3.95 -1
      vertex -3.95 -3.95 11
    endloop
  endfacet
  facet normal 0 0 1
    outer loop
      vertex 60.95 31.95 11
      vertex 59.7 30.7 11
      vertex 60.95 -3.95 11
    endloop
  endfacet
  facet normal 0 0 1
    outer loop
      vertex 60.95 31.95 11
      vertex -2.7 30.7 11
      vertex 59.7 30.7 11
    endloop
  endfacet
  facet normal 0 0 1
    outer loop
      vertex -2.7 30.7 11
      vertex -3.95 31.95 11
      vertex -2.7 -2.7 11
    endloop
  endfacet
  facet normal -0 0 1
    outer loop
      vertex -3.95 31.95 11
      vertex -2.7 30.7 11
      vertex 60.95 31.95 11
    endloop
  endfacet
  facet normal -0 0 1
    outer loop
      vertex 59.7 -2.7 11
      vertex 60.95 -3.95 11
      vertex 59.7 30.7 11
    endloop
  endfacet
  facet normal -0 0 1
    outer loop
      vertex -2.7 -2.7 11
      vertex 60.95 -3.95 11
      vertex 59.7 -2.7 11
    endloop
  endfacet
  facet normal 0 0 1
    outer loop
      vertex -2.7 -2.7 11
      vertex -3.95 -3.95 11
      vertex 60.95 -3.95 11
    endloop
  endfacet
  facet normal 0 0 1
    outer loop
      vertex -3.95 -3.95 11
      vertex -2.7 -2.7 11
      vertex -3.95 31.95 11
    endloop
  endfacet
  facet normal 1 -0 0
    outer loop
      vertex 60.95 -3.95 11
      vertex 60.95 31.95 -1
      vertex 60.95 31.95 11
    endloop
  endfacet
  facet normal 1 0 0
    outer loop
      vertex 60.95 31.95 -1
      vertex 60.95 -3.95 11
      vertex 60.95 -3.95 -1
    endloop
  endfacet
  facet normal 0 1 0
    outer loop
      vertex 60.95 31.95 11
      vertex 28.5 31.95 10.075
      vertex -3.95 31.95 11
    endloop
  endfacet
  facet normal 0 1 0
    outer loop
      vertex 60.95 31.95 11
      vertex 29.6202 31.95 9.89758
      vertex 28.5 31.95 10.075
    endloop
  endfacet
  facet normal 0 1 0
    outer loop
      vertex 60.95 31.95 11
      vertex 30.6307 31.95 9.38269
      vertex 29.6202 31.95 9.89758
    endloop
  endfacet
  facet normal 0 1 0
    outer loop
      vertex 60.95 31.95 11
      vertex 31.4327 31.95 8.58072
      vertex 30.6307 31.95 9.38269
    endloop
  endfacet
  facet normal 0 1 0
    outer loop
      vertex 60.95 31.95 11
      vertex 31.9476 31.95 7.57019
      vertex 31.4327 31.95 8.58072
    endloop
  endfacet
  facet normal 0 1 0
    outer loop
      vertex 60.95 31.95 11
      vertex 32.125 31.95 6.45
      vertex 31.9476 31.95 7.57019
    endloop
  endfacet
  facet normal 0 1 -0
    outer loop
      vertex 60.95 31.95 -1
      vertex 32.125 31.95 6.45
      vertex 60.95 31.95 11
    endloop
  endfacet
  facet normal 0 1 0
    outer loop
      vertex 32.125 31.95 6.45
      vertex 60.95 31.95 -1
      vertex 32.125 31.95 -1
    endloop
  endfacet
  facet normal 0 1 -0
    outer loop
      vertex 27.3798 31.95 9.89758
      vertex -3.95 31.95 11
      vertex 28.5 31.95 10.075
    endloop
  endfacet
  facet normal 0 1 -0
    outer loop
      vertex 26.3693 31.95 9.38269
      vertex -3.95 31.95 11
      vertex 27.3798 31.95 9.89758
    endloop
  endfacet
  facet normal 0 1 -0
    outer loop
      vertex 25.5673 31.95 8.58072
      vertex -3.95 31.95 11
      vertex 26.3693 31.95 9.38269
    endloop
  endfacet
  facet normal 0 1 -0
    outer loop
      vertex 25.0524 31.95 7.57019
      vertex -3.95 31.95 11
      vertex 25.5673 31.95 8.58072
    endloop
  endfacet
  facet normal 0 1 -0
    outer loop
      vertex 24.875 31.95 6.45
      vertex -3.95 31.95 11
      vertex 25.0524 31.95 7.57019
    endloop
  endfacet
  facet normal 0 1 0
    outer loop
      vertex -3.95 31.95 -1
      vertex 24.875 31.95 6.45
      vertex 24.875 31.95 -1
    endloop
  endfacet
  facet normal 0 1 0
    outer loop
      vertex 24.875 31.95 6.45
      vertex -3.95 31.95 -1
      vertex -3.95 31.95 11
    endloop
  endfacet
  facet normal 0 0 0
    outer loop
      vertex 32.125 31.95 -1
      vertex 60.95 31.95 -1
      vertex -3.95 31.95 -1
    endloop
  endfacet
  facet normal 0 0 0
    outer loop
      vertex 32.125 31.95 -1
      vertex -3.95 31.95 -1
      vertex 24.875 31.95 -1
    endloop
  endfacet
  facet normal 0 0 -1
    outer loop
      vertex 60.95 -3.95 -1
      vertex 58.45 -1.45 -1
      vertex 60.95 31.95 -1
    endloop
  endfacet
  facet normal 0 0 -1
    outer loop
      vertex 60.95 -3.95 -1
      vertex -1.45 -1.45 -1
      vertex 58.45 -1.45 -1
    endloop
  endfacet
  facet normal -0 0 -1
    outer loop
      vertex -1.45 -1.45 -1
      vertex -3.95 -3.95 -1
      vertex -1.45 29.45 -1
    endloop
  endfacet
  facet normal 0 0 -1
    outer loop
      vertex -3.95 -3.95 -1
      vertex -1.45 -1.45 -1
      vertex 60.95 -3.95 -1
    endloop
  endfacet
  facet normal 0 0 -1
    outer loop
      vertex 58.45 29.45 -1
      vertex 60.95 31.95 -1
      vertex 58.45 -1.45 -1
    endloop
  endfacet
  facet normal 0 0 -1
    outer loop
      vertex -1.45 29.45 -1
      vertex 60.95 31.95 -1
      vertex 58.45 29.45 -1
    endloop
  endfacet
  facet normal 0 0 -1
    outer loop
      vertex -1.45 29.45 -1
      vertex -3.95 31.95 -1
      vertex 60.95 31.95 -1
    endloop
  endfacet
  facet normal 0 0 -1
    outer loop
      vertex -3.95 31.95 -1
      vertex -1.45 29.45 -1
      vertex -3.95 -3.95 -1
    endloop
  endfacet
  facet normal 0 -1 0
    outer loop
      vertex -3.95 -3.95 11
      vertex 28.5 -3.95 10.075
      vertex 60.95 -3.95 11
    endloop
  endfacet
  facet normal 0 -1 0
    outer loop
      vertex -3.95 -3.95 11
      vertex 27.3798 -3.95 9.89758
      vertex 28.5 -3.95 10.075
    endloop
  endfacet
  facet normal 0 -1 0
    outer loop
      vertex -3.95 -3.95 11
      vertex 26.3693 -3.95 9.38269
      vertex 27.3798 -3.95 9.89758
    endloop
  endfacet
  facet normal 0 -1 0
    outer loop
      vertex -3.95 -3.95 11
      vertex 25.5673 -3.95 8.58072
      vertex 26.3693 -3.95 9.38269
    endloop
  endfacet
  facet normal 0 -1 0
    outer loop
      vertex -3.95 -3.95 11
      vertex 25.0524 -3.95 7.57019
      vertex 25.5673 -3.95 8.58072
    endloop
  endfacet
  facet normal 0 -1 0
    outer loop
      vertex -3.95 -3.95 11
      vertex 24.875 -3.95 6.45
      vertex 25.0524 -3.95 7.57019
    endloop
  endfacet
  facet normal 0 -1 0
    outer loop
      vertex -3.95 -3.95 -1
      vertex 24.875 -3.95 6.45
      vertex -3.95 -3.95 11
    endloop
  endfacet
  facet normal 0 -1 -0
    outer loop
      vertex 24.875 -3.95 -0.999999
      vertex -3.95 -3.95 -1
      vertex 32.125 -3.95 -0.999999
    endloop
  endfacet
  facet normal 0 -1 -0
    outer loop
      vertex 24.875 -3.95 6.45
      vertex -3.95 -3.95 -1
      vertex 24.875 -3.95 -0.999999
    endloop
  endfacet
  facet normal 0 -1 0
    outer loop
      vertex 29.6202 -3.95 9.89758
      vertex 60.95 -3.95 11
      vertex 28.5 -3.95 10.075
    endloop
  endfacet
  facet normal 0 -1 0
    outer loop
      vertex 30.6307 -3.95 9.38269
      vertex 60.95 -3.95 11
      vertex 29.6202 -3.95 9.89758
    endloop
  endfacet
  facet normal 0 -1 0
    outer loop
      vertex 31.4327 -3.95 8.58072
      vertex 60.95 -3.95 11
      vertex 30.6307 -3.95 9.38269
    endloop
  endfacet
  facet normal 0 -1 0
    outer loop
      vertex 31.9476 -3.95 7.57019
      vertex 60.95 -3.95 11
      vertex 31.4327 -3.95 8.58072
    endloop
  endfacet
  facet normal 0 -1 0
    outer loop
      vertex 32.125 -3.95 6.45
      vertex 60.95 -3.95 11
      vertex 31.9476 -3.95 7.57019
    endloop
  endfacet
  facet normal 0 -1 0
    outer loop
      vertex 60.95 -3.95 -1
      vertex 32.125 -3.95 6.45
      vertex 32.125 -3.95 -0.999999
    endloop
  endfacet
  facet normal 0 -1 0
    outer loop
      vertex 32.125 -3.95 6.45
      vertex 60.95 -3.95 -1
      vertex 60.95 -3.95 11
    endloop
  endfacet
  facet normal 0 -1 0
    outer loop
      vertex 60.95 -3.95 -1
      vertex 32.125 -3.95 -0.999999
      vertex -3.95 -3.95 -1
    endloop
  endfacet
  facet normal 0.987688 -0 0.156436
    outer loop
      vertex 31.9476 31.95 7.57019
      vertex 32.125 33 6.45
      vertex 31.9476 33 7.57019
    endloop
  endfacet
  facet normal 0.987688 0 0.156436
    outer loop
      vertex 32.125 33 6.45
      vertex 31.9476 31.95 7.57019
      vertex 32.125 31.95 6.45
    endloop
  endfacet
  facet normal 0.987688 -0 0.156436
    outer loop
      vertex 31.9476 -5 7.57019
      vertex 32.125 -3.95 6.45
      vertex 31.9476 -3.95 7.57019
    endloop
  endfacet
  facet normal 0.987688 0 0.156436
    outer loop
      vertex 32.125 -3.95 6.45
      vertex 31.9476 -5 7.57019
      vertex 32.125 -5 6.45
    endloop
  endfacet
  facet normal 0.891007 -0 0.45399
    outer loop
      vertex 31.4327 31.95 8.58072
      vertex 31.9476 33 7.57019
      vertex 31.4327 33 8.58072
    endloop
  endfacet
  facet normal 0.891007 0 0.45399
    outer loop
      vertex 31.9476 33 7.57019
      vertex 31.4327 31.95 8.58072
      vertex 31.9476 31.95 7.57019
    endloop
  endfacet
  facet normal 0.891007 -0 0.45399
    outer loop
      vertex 31.4327 -5 8.58072
      vertex 31.9476 -3.95 7.57019
      vertex 31.4327 -3.95 8.58072
    endloop
  endfacet
  facet normal 0.891007 0 0.45399
    outer loop
      vertex 31.9476 -3.95 7.57019
      vertex 31.4327 -5 8.58072
      vertex 31.9476 -5 7.57019
    endloop
  endfacet
  facet normal 1 -0 0
    outer loop
      vertex 32.125 -5 6.45
      vertex 32.125 -3.95 -0.999999
      vertex 32.125 -3.95 6.45
    endloop
  endfacet
  facet normal 1 0 0
    outer loop
      vertex 32.125 -3.95 -0.999999
      vertex 32.125 -5 6.45
      vertex 32.125 -5 -0.999999
    endloop
  endfacet
  facet normal 1 -0 0
    outer loop
      vertex 32.125 31.95 6.45
      vertex 32.125 33 -1
      vertex 32.125 33 6.45
    endloop
  endfacet
  facet normal 1 0 0
    outer loop
      vertex 32.125 33 -1
      vertex 32.125 31.95 6.45
      vertex 32.125 31.95 -1
    endloop
  endfacet
  facet normal 0 0 -1
    outer loop
      vertex 24.875 31.95 -1
      vertex 32.125 33 -1
      vertex 32.125 31.95 -1
    endloop
  endfacet
  facet normal -0 0 -1
    outer loop
      vertex 32.125 33 -1
      vertex 24.875 31.95 -1
      vertex 24.875 33 -1
    endloop
  endfacet
  facet normal 0 0 -1
    outer loop
      vertex 24.875 -5 -0.999999
      vertex 32.125 -3.95 -0.999999
      vertex 32.125 -5 -0.999999
    endloop
  endfacet
  facet normal -0 0 -1
    outer loop
      vertex 32.125 -3.95 -0.999999
      vertex 24.875 -5 -0.999999
      vertex 24.875 -3.95 -0.999999
    endloop
  endfacet
  facet normal 0 1 0
    outer loop
      vertex 28.5 33 7.9
      vertex 28.5 33 10.075
      vertex 29.6202 33 9.89758
    endloop
  endfacet
  facet normal 0 1 0
    outer loop
      vertex 28.9481 33 7.82903
      vertex 29.6202 33 9.89758
      vertex 30.6307 33 9.38269
    endloop
  endfacet
  facet normal 0 1 0
    outer loop
      vertex 28.5 33 10.075
      vertex 28.5 33 7.9
      vertex 27.3798 33 9.89758
    endloop
  endfacet
  facet normal 0 1 0
    outer loop
      vertex 29.3523 33 7.62307
      vertex 30.6307 33 9.38269
      vertex 31.4327 33 8.58072
    endloop
  endfacet
  facet normal 0 1 -0
    outer loop
      vertex 28.0519 33 7.82903
      vertex 27.3798 33 9.89758
      vertex 28.5 33 7.9
    endloop
  endfacet
  facet normal 0 1 0
    outer loop
      vertex 27.3798 33 9.89758
      vertex 28.0519 33 7.82903
      vertex 26.3693 33 9.38269
    endloop
  endfacet
  facet normal 0 1 0
    outer loop
      vertex 29.6202 33 9.89758
      vertex 28.9481 33 7.82903
      vertex 28.5 33 7.9
    endloop
  endfacet
  facet normal 0 1 0
    outer loop
      vertex 30.6307 33 9.38269
      vertex 29.3523 33 7.62307
      vertex 28.9481 33 7.82903
    endloop
  endfacet
  facet normal 0 1 0
    outer loop
      vertex 29.6731 33 7.30229
      vertex 31.4327 33 8.58072
      vertex 31.9476 33 7.57019
    endloop
  endfacet
  facet normal 0 1 0
    outer loop
      vertex 31.4327 33 8.58072
      vertex 29.6731 33 7.30229
      vertex 29.3523 33 7.62307
    endloop
  endfacet
  facet normal 0 1 0
    outer loop
      vertex 31.9476 33 7.57019
      vertex 29.879 33 6.89807
      vertex 29.6731 33 7.30229
    endloop
  endfacet
  facet normal 0 1 0
    outer loop
      vertex 32.125 33 6.45
      vertex 29.879 33 6.89807
      vertex 31.9476 33 7.57019
    endloop
  endfacet
  facet normal 0 1 0
    outer loop
      vertex 32.125 33 6.45
      vertex 29.95 33 6.45
      vertex 29.879 33 6.89807
    endloop
  endfacet
  facet normal 0 1 0
    outer loop
      vertex 32.125 33 6.45
      vertex 29.879 33 6.00192
      vertex 29.95 33 6.45
    endloop
  endfacet
  facet normal 0 1 0
    outer loop
      vertex 32.125 33 6.45
      vertex 29.6731 33 5.59771
      vertex 29.879 33 6.00192
    endloop
  endfacet
  facet normal 0 1 0
    outer loop
      vertex 32.125 33 6.45
      vertex 29.3523 33 5.27693
      vertex 29.6731 33 5.59771
    endloop
  endfacet
  facet normal 0 1 -0
    outer loop
      vertex 32.125 33 -1
      vertex 29.3523 33 5.27693
      vertex 32.125 33 6.45
    endloop
  endfacet
  facet normal 0 1 0
    outer loop
      vertex 32.125 33 -1
      vertex 28.5261 33 5.00413
      vertex 28.9481 33 5.07097
    endloop
  endfacet
  facet normal 0 1 0
    outer loop
      vertex 28.5261 33 5.00413
      vertex 32.125 33 -1
      vertex 28.5 33 5
    endloop
  endfacet
  facet normal 0 1 0
    outer loop
      vertex 29.3523 33 5.27693
      vertex 32.125 33 -1
      vertex 28.9481 33 5.07097
    endloop
  endfacet
  facet normal 0 1 -0
    outer loop
      vertex 27.6477 33 7.62307
      vertex 26.3693 33 9.38269
      vertex 28.0519 33 7.82903
    endloop
  endfacet
  facet normal 0 1 0
    outer loop
      vertex 26.3693 33 9.38269
      vertex 27.6477 33 7.62307
      vertex 25.5673 33 8.58072
    endloop
  endfacet
  facet normal 0 1 -0
    outer loop
      vertex 27.3269 33 7.30229
      vertex 25.5673 33 8.58072
      vertex 27.6477 33 7.62307
    endloop
  endfacet
  facet normal 0 1 0
    outer loop
      vertex 25.5673 33 8.58072
      vertex 27.3269 33 7.30229
      vertex 25.0524 33 7.57019
    endloop
  endfacet
  facet normal 0 1 -0
    outer loop
      vertex 27.121 33 6.89807
      vertex 25.0524 33 7.57019
      vertex 27.3269 33 7.30229
    endloop
  endfacet
  facet normal 0 1 -0
    outer loop
      vertex 27.05 33 6.45
      vertex 25.0524 33 7.57019
      vertex 27.121 33 6.89807
    endloop
  endfacet
  facet normal 0 1 0
    outer loop
      vertex 27.05 33 6.45
      vertex 24.875 33 6.45
      vertex 25.0524 33 7.57019
    endloop
  endfacet
  facet normal 0 1 0
    outer loop
      vertex 27.121 33 6.00192
      vertex 24.875 33 6.45
      vertex 27.05 33 6.45
    endloop
  endfacet
  facet normal 0 1 0
    outer loop
      vertex 27.3269 33 5.59771
      vertex 24.875 33 6.45
      vertex 27.121 33 6.00192
    endloop
  endfacet
  facet normal 0 1 0
    outer loop
      vertex 27.6477 33 5.27693
      vertex 24.875 33 6.45
      vertex 27.3269 33 5.59771
    endloop
  endfacet
  facet normal 0 1 0
    outer loop
      vertex 24.875 33 -1
      vertex 27.6477 33 5.27693
      vertex 28.0519 33 5.07097
    endloop
  endfacet
  facet normal 0 1 0
    outer loop
      vertex 24.875 33 -1
      vertex 28.4739 33 5.00413
      vertex 28.5 33 5
    endloop
  endfacet
  facet normal 0 1 0
    outer loop
      vertex 24.875 33 -1
      vertex 28.5 33 5
      vertex 32.125 33 -1
    endloop
  endfacet
  facet normal 0 1 0
    outer loop
      vertex 28.4739 33 5.00413
      vertex 24.875 33 -1
      vertex 28.0519 33 5.07097
    endloop
  endfacet
  facet normal 0 1 0
    outer loop
      vertex 27.6477 33 5.27693
      vertex 24.875 33 -1
      vertex 24.875 33 6.45
    endloop
  endfacet
  facet normal 0 -1 0
    outer loop
      vertex 28.5 -5 7.9
      vertex 28.5 -5 10.075
      vertex 27.3798 -5 9.89758
    endloop
  endfacet
  facet normal 0 -1 0
    outer loop
      vertex 28.0519 -5 7.82903
      vertex 27.3798 -5 9.89758
      vertex 26.3693 -5 9.38269
    endloop
  endfacet
  facet normal 0 -1 0
    outer loop
      vertex 28.5 -5 10.075
      vertex 28.5 -5 7.9
      vertex 29.6202 -5 9.89758
    endloop
  endfacet
  facet normal 0 -1 0
    outer loop
      vertex 27.6477 -5 7.62307
      vertex 26.3693 -5 9.38269
      vertex 25.5673 -5 8.58072
    endloop
  endfacet
  facet normal 0 -1 0
    outer loop
      vertex 28.9481 -5 7.82903
      vertex 29.6202 -5 9.89758
      vertex 28.5 -5 7.9
    endloop
  endfacet
  facet normal 0 -1 -0
    outer loop
      vertex 29.6202 -5 9.89758
      vertex 28.9481 -5 7.82903
      vertex 30.6307 -5 9.38269
    endloop
  endfacet
  facet normal 0 -1 0
    outer loop
      vertex 27.3798 -5 9.89758
      vertex 28.0519 -5 7.82903
      vertex 28.5 -5 7.9
    endloop
  endfacet
  facet normal 0 -1 0
    outer loop
      vertex 26.3693 -5 9.38269
      vertex 27.6477 -5 7.62307
      vertex 28.0519 -5 7.82903
    endloop
  endfacet
  facet normal 0 -1 0
    outer loop
      vertex 27.3269 -5 7.30229
      vertex 25.5673 -5 8.58072
      vertex 25.0524 -5 7.57019
    endloop
  endfacet
  facet normal 0 -1 0
    outer loop
      vertex 25.5673 -5 8.58072
      vertex 27.3269 -5 7.30229
      vertex 27.6477 -5 7.62307
    endloop
  endfacet
  facet normal 0 -1 0
    outer loop
      vertex 25.0524 -5 7.57019
      vertex 27.121 -5 6.89807
      vertex 27.3269 -5 7.30229
    endloop
  endfacet
  facet normal 0 -1 0
    outer loop
      vertex 24.875 -5 6.45
      vertex 27.121 -5 6.89807
      vertex 25.0524 -5 7.57019
    endloop
  endfacet
  facet normal 0 -1 0
    outer loop
      vertex 24.875 -5 6.45
      vertex 27.05 -5 6.45
      vertex 27.121 -5 6.89807
    endloop
  endfacet
  facet normal 0 -1 0
    outer loop
      vertex 24.875 -5 6.45
      vertex 27.121 -5 6.00192
      vertex 27.05 -5 6.45
    endloop
  endfacet
  facet normal 0 -1 0
    outer loop
      vertex 24.875 -5 6.45
      vertex 27.3269 -5 5.59771
      vertex 27.121 -5 6.00192
    endloop
  endfacet
  facet normal 0 -1 0
    outer loop
      vertex 24.875 -5 6.45
      vertex 27.6477 -5 5.27693
      vertex 27.3269 -5 5.59771
    endloop
  endfacet
  facet normal 0 -1 0
    outer loop
      vertex 24.875 -5 -0.999999
      vertex 27.6477 -5 5.27693
      vertex 24.875 -5 6.45
    endloop
  endfacet
  facet normal 0 -1 -0
    outer loop
      vertex 28.078 -5 5.06684
      vertex 24.875 -5 -0.999999
      vertex 28.5 -5 5
    endloop
  endfacet
  facet normal 0 -1 -0
    outer loop
      vertex 28.0519 -5 5.07097
      vertex 24.875 -5 -0.999999
      vertex 28.078 -5 5.06684
    endloop
  endfacet
  facet normal 0 -1 -0
    outer loop
      vertex 27.6477 -5 5.27693
      vertex 24.875 -5 -0.999999
      vertex 28.0519 -5 5.07097
    endloop
  endfacet
  facet normal 0 -1 0
    outer loop
      vertex 29.3523 -5 7.62307
      vertex 30.6307 -5 9.38269
      vertex 28.9481 -5 7.82903
    endloop
  endfacet
  facet normal 0 -1 -0
    outer loop
      vertex 30.6307 -5 9.38269
      vertex 29.3523 -5 7.62307
      vertex 31.4327 -5 8.58072
    endloop
  endfacet
  facet normal 0 -1 0
    outer loop
      vertex 29.6731 -5 7.30229
      vertex 31.4327 -5 8.58072
      vertex 29.3523 -5 7.62307
    endloop
  endfacet
  facet normal 0 -1 -0
    outer loop
      vertex 31.4327 -5 8.58072
      vertex 29.6731 -5 7.30229
      vertex 31.9476 -5 7.57019
    endloop
  endfacet
  facet normal 0 -1 0
    outer loop
      vertex 29.879 -5 6.89807
      vertex 31.9476 -5 7.57019
      vertex 29.6731 -5 7.30229
    endloop
  endfacet
  facet normal 0 -1 0
    outer loop
      vertex 29.95 -5 6.45
      vertex 31.9476 -5 7.57019
      vertex 29.879 -5 6.89807
    endloop
  endfacet
  facet normal 0 -1 0
    outer loop
      vertex 29.95 -5 6.45
      vertex 32.125 -5 6.45
      vertex 31.9476 -5 7.57019
    endloop
  endfacet
  facet normal 0 -1 0
    outer loop
      vertex 29.879 -5 6.00192
      vertex 32.125 -5 6.45
      vertex 29.95 -5 6.45
    endloop
  endfacet
  facet normal 0 -1 0
    outer loop
      vertex 29.6731 -5 5.59771
      vertex 32.125 -5 6.45
      vertex 29.879 -5 6.00192
    endloop
  endfacet
  facet normal 0 -1 0
    outer loop
      vertex 29.3523 -5 5.27693
      vertex 32.125 -5 6.45
      vertex 29.6731 -5 5.59771
    endloop
  endfacet
  facet normal 0 -1 0
    outer loop
      vertex 32.125 -5 -0.999999
      vertex 29.3523 -5 5.27693
      vertex 28.9481 -5 5.07097
    endloop
  endfacet
  facet normal 0 -1 0
    outer loop
      vertex 32.125 -5 -0.999999
      vertex 28.5 -5 5
      vertex 24.875 -5 -0.999999
    endloop
  endfacet
  facet normal 0 -1 0
    outer loop
      vertex 28.5 -5 5
      vertex 32.125 -5 -0.999999
      vertex 28.922 -5 5.06684
    endloop
  endfacet
  facet normal 0 -1 0
    outer loop
      vertex 28.922 -5 5.06684
      vertex 32.125 -5 -0.999999
      vertex 28.9481 -5 5.07097
    endloop
  endfacet
  facet normal 0 -1 0
    outer loop
      vertex 29.3523 -5 5.27693
      vertex 32.125 -5 -0.999999
      vertex 32.125 -5 6.45
    endloop
  endfacet
  facet normal -1 0 0
    outer loop
      vertex 24.875 31.95 -1
      vertex 24.875 33 6.45
      vertex 24.875 33 -1
    endloop
  endfacet
  facet normal -1 -0 0
    outer loop
      vertex 24.875 33 6.45
      vertex 24.875 31.95 -1
      vertex 24.875 31.95 6.45
    endloop
  endfacet
  facet normal -1 0 0
    outer loop
      vertex 24.875 -5 -0.999999
      vertex 24.875 -3.95 6.45
      vertex 24.875 -3.95 -0.999999
    endloop
  endfacet
  facet normal -1 -0 0
    outer loop
      vertex 24.875 -3.95 6.45
      vertex 24.875 -5 -0.999999
      vertex 24.875 -5 6.45
    endloop
  endfacet
  facet normal -0.987688 0 0.156434
    outer loop
      vertex 24.875 -5 6.45
      vertex 25.0524 -3.95 7.57019
      vertex 24.875 -3.95 6.45
    endloop
  endfacet
  facet normal -0.987688 0 0.156434
    outer loop
      vertex 25.0524 -3.95 7.57019
      vertex 24.875 -5 6.45
      vertex 25.0524 -5 7.57019
    endloop
  endfacet
  facet normal -0.987688 0 0.156434
    outer loop
      vertex 24.875 31.95 6.45
      vertex 25.0524 33 7.57019
      vertex 24.875 33 6.45
    endloop
  endfacet
  facet normal -0.987688 0 0.156434
    outer loop
      vertex 25.0524 33 7.57019
      vertex 24.875 31.95 6.45
      vertex 25.0524 31.95 7.57019
    endloop
  endfacet
  facet normal -0.891006 0 0.453991
    outer loop
      vertex 25.0524 31.95 7.57019
      vertex 25.5673 33 8.58072
      vertex 25.0524 33 7.57019
    endloop
  endfacet
  facet normal -0.891006 0 0.453991
    outer loop
      vertex 25.5673 33 8.58072
      vertex 25.0524 31.95 7.57019
      vertex 25.5673 31.95 8.58072
    endloop
  endfacet
  facet normal -0.891006 0 0.453991
    outer loop
      vertex 25.0524 -5 7.57019
      vertex 25.5673 -3.95 8.58072
      vertex 25.0524 -3.95 7.57019
    endloop
  endfacet
  facet normal -0.891006 0 0.453991
    outer loop
      vertex 25.5673 -3.95 8.58072
      vertex 25.0524 -5 7.57019
      vertex 25.5673 -5 8.58072
    endloop
  endfacet
  facet normal 0.45399 0 0.891007
    outer loop
      vertex 29.6202 33 9.89758
      vertex 30.6307 31.95 9.38269
      vertex 30.6307 33 9.38269
    endloop
  endfacet
  facet normal 0.45399 0 0.891007
    outer loop
      vertex 30.6307 31.95 9.38269
      vertex 29.6202 33 9.89758
      vertex 29.6202 31.95 9.89758
    endloop
  endfacet
  facet normal 0.45399 0 0.891007
    outer loop
      vertex 29.6202 -3.95 9.89758
      vertex 30.6307 -5 9.38269
      vertex 30.6307 -3.95 9.38269
    endloop
  endfacet
  facet normal 0.45399 0 0.891007
    outer loop
      vertex 30.6307 -5 9.38269
      vertex 29.6202 -3.95 9.89758
      vertex 29.6202 -5 9.89758
    endloop
  endfacet
  facet normal 0.156435 0 0.987688
    outer loop
      vertex 28.5 33 10.075
      vertex 29.6202 31.95 9.89758
      vertex 29.6202 33 9.89758
    endloop
  endfacet
  facet normal 0.156435 0 0.987688
    outer loop
      vertex 29.6202 31.95 9.89758
      vertex 28.5 33 10.075
      vertex 28.5 31.95 10.075
    endloop
  endfacet
  facet normal 0.156435 0 0.987688
    outer loop
      vertex 28.5 -3.95 10.075
      vertex 29.6202 -5 9.89758
      vertex 29.6202 -3.95 9.89758
    endloop
  endfacet
  facet normal 0.156435 0 0.987688
    outer loop
      vertex 29.6202 -5 9.89758
      vertex 28.5 -3.95 10.075
      vertex 28.5 -5 10.075
    endloop
  endfacet
  facet normal -0.707107 0 0.707106
    outer loop
      vertex 25.5673 31.95 8.58072
      vertex 26.3693 33 9.38269
      vertex 25.5673 33 8.58072
    endloop
  endfacet
  facet normal -0.707107 0 0.707106
    outer loop
      vertex 26.3693 33 9.38269
      vertex 25.5673 31.95 8.58072
      vertex 26.3693 31.95 9.38269
    endloop
  endfacet
  facet normal -0.707107 0 0.707106
    outer loop
      vertex 25.5673 -5 8.58072
      vertex 26.3693 -3.95 9.38269
      vertex 25.5673 -3.95 8.58072
    endloop
  endfacet
  facet normal -0.707107 0 0.707106
    outer loop
      vertex 26.3693 -3.95 9.38269
      vertex 25.5673 -5 8.58072
      vertex 26.3693 -5 9.38269
    endloop
  endfacet
  facet normal 0.707107 -0 0.707106
    outer loop
      vertex 30.6307 31.95 9.38269
      vertex 31.4327 33 8.58072
      vertex 30.6307 33 9.38269
    endloop
  endfacet
  facet normal 0.707107 0 0.707106
    outer loop
      vertex 31.4327 33 8.58072
      vertex 30.6307 31.95 9.38269
      vertex 31.4327 31.95 8.58072
    endloop
  endfacet
  facet normal 0.707107 -0 0.707106
    outer loop
      vertex 30.6307 -5 9.38269
      vertex 31.4327 -3.95 8.58072
      vertex 30.6307 -3.95 9.38269
    endloop
  endfacet
  facet normal 0.707107 0 0.707106
    outer loop
      vertex 31.4327 -3.95 8.58072
      vertex 30.6307 -5 9.38269
      vertex 31.4327 -5 8.58072
    endloop
  endfacet
  facet normal -0.156435 0 0.987688
    outer loop
      vertex 27.3798 33 9.89758
      vertex 28.5 31.95 10.075
      vertex 28.5 33 10.075
    endloop
  endfacet
  facet normal -0.156435 0 0.987688
    outer loop
      vertex 28.5 31.95 10.075
      vertex 27.3798 33 9.89758
      vertex 27.3798 31.95 9.89758
    endloop
  endfacet
  facet normal -0.156435 0 0.987688
    outer loop
      vertex 27.3798 -3.95 9.89758
      vertex 28.5 -5 10.075
      vertex 28.5 -3.95 10.075
    endloop
  endfacet
  facet normal -0.156435 0 0.987688
    outer loop
      vertex 28.5 -5 10.075
      vertex 27.3798 -3.95 9.89758
      vertex 27.3798 -5 9.89758
    endloop
  endfacet
  facet normal -0.45399 0 0.891007
    outer loop
      vertex 26.3693 -3.95 9.38269
      vertex 27.3798 -5 9.89758
      vertex 27.3798 -3.95 9.89758
    endloop
  endfacet
  facet normal -0.45399 0 0.891007
    outer loop
      vertex 27.3798 -5 9.89758
      vertex 26.3693 -3.95 9.38269
      vertex 26.3693 -5 9.38269
    endloop
  endfacet
  facet normal -0.45399 0 0.891007
    outer loop
      vertex 26.3693 33 9.38269
      vertex 27.3798 31.95 9.89758
      vertex 27.3798 33 9.89758
    endloop
  endfacet
  facet normal -0.45399 0 0.891007
    outer loop
      vertex 27.3798 31.95 9.89758
      vertex 26.3693 33 9.38269
      vertex 26.3693 31.95 9.38269
    endloop
  endfacet
  facet normal 1 -0 0
    outer loop
      vertex -1.45 -1.45 0
      vertex -1.45 29.45 -1
      vertex -1.45 29.45 0
    endloop
  endfacet
  facet normal 1 0 0
    outer loop
      vertex -1.45 29.45 -1
      vertex -1.45 -1.45 0
      vertex -1.45 -1.45 -1
    endloop
  endfacet
  facet normal -1 0 0
    outer loop
      vertex 58.45 -1.45 -1
      vertex 58.45 29.45 0
      vertex 58.45 29.45 -1
    endloop
  endfacet
  facet normal -1 -0 0
    outer loop
      vertex 58.45 29.45 0
      vertex 58.45 -1.45 -1
      vertex 58.45 -1.45 0
    endloop
  endfacet
  facet normal 0 -1 0
    outer loop
      vertex -1.45 29.45 -1
      vertex 58.45 29.45 0
      vertex -1.45 29.45 0
    endloop
  endfacet
  facet normal 0 -1 -0
    outer loop
      vertex 58.45 29.45 0
      vertex -1.45 29.45 -1
      vertex 58.45 29.45 -1
    endloop
  endfacet
  facet normal 0 1 -0
    outer loop
      vertex 58.45 -1.45 -1
      vertex -1.45 -1.45 0
      vertex 58.45 -1.45 0
    endloop
  endfacet
  facet normal 0 1 0
    outer loop
      vertex -1.45 -1.45 0
      vertex 58.45 -1.45 -1
      vertex -1.45 -1.45 -1
    endloop
  endfacet
  facet normal 1 -0 0
    outer loop
      vertex -2.7 -2.7 11
      vertex -2.7 30.7 0
      vertex -2.7 30.7 11
    endloop
  endfacet
  facet normal 1 0 0
    outer loop
      vertex -2.7 30.7 0
      vertex -2.7 -2.7 11
      vertex -2.7 -2.7 0
    endloop
  endfacet
  facet normal -1 0 0
    outer loop
      vertex 59.7 -2.7 0
      vertex 59.7 30.7 11
      vertex 59.7 30.7 0
    endloop
  endfacet
  facet normal -1 -0 0
    outer loop
      vertex 59.7 30.7 11
      vertex 59.7 -2.7 0
      vertex 59.7 -2.7 11
    endloop
  endfacet
  facet normal 0 0 1
    outer loop
      vertex 59.7 30.7 0
      vertex 58.45 29.45 0
      vertex 59.7 -2.7 0
    endloop
  endfacet
  facet normal 0 0 1
    outer loop
      vertex 59.7 30.7 0
      vertex -1.45 29.45 0
      vertex 58.45 29.45 0
    endloop
  endfacet
  facet normal 0 0 1
    outer loop
      vertex -1.45 29.45 0
      vertex -2.7 30.7 0
      vertex -1.45 -1.45 0
    endloop
  endfacet
  facet normal -0 0 1
    outer loop
      vertex -2.7 30.7 0
      vertex -1.45 29.45 0
      vertex 59.7 30.7 0
    endloop
  endfacet
  facet normal -0 0 1
    outer loop
      vertex 58.45 -1.45 0
      vertex 59.7 -2.7 0
      vertex 58.45 29.45 0
    endloop
  endfacet
  facet normal -0 0 1
    outer loop
      vertex -1.45 -1.45 0
      vertex 59.7 -2.7 0
      vertex 58.45 -1.45 0
    endloop
  endfacet
  facet normal 0 0 1
    outer loop
      vertex -1.45 -1.45 0
      vertex -2.7 -2.7 0
      vertex 59.7 -2.7 0
    endloop
  endfacet
  facet normal 0 0 1
    outer loop
      vertex -2.7 -2.7 0
      vertex -1.45 -1.45 0
      vertex -2.7 30.7 0
    endloop
  endfacet
  facet normal 0 1 0
    outer loop
      vertex 59.7 -2.7 11
      vertex 28.5 -2.7 7.9
      vertex -2.7 -2.7 11
    endloop
  endfacet
  facet normal 0 1 0
    outer loop
      vertex 59.7 -2.7 11
      vertex 28.9481 -2.7 7.82903
      vertex 28.5 -2.7 7.9
    endloop
  endfacet
  facet normal 0 1 0
    outer loop
      vertex 59.7 -2.7 11
      vertex 29.3523 -2.7 7.62307
      vertex 28.9481 -2.7 7.82903
    endloop
  endfacet
  facet normal 0 1 0
    outer loop
      vertex 59.7 -2.7 11
      vertex 29.6731 -2.7 7.30229
      vertex 29.3523 -2.7 7.62307
    endloop
  endfacet
  facet normal 0 1 0
    outer loop
      vertex 59.7 -2.7 11
      vertex 29.879 -2.7 6.89807
      vertex 29.6731 -2.7 7.30229
    endloop
  endfacet
  facet normal 0 1 0
    outer loop
      vertex 59.7 -2.7 11
      vertex 29.95 -2.7 6.45
      vertex 29.879 -2.7 6.89807
    endloop
  endfacet
  facet normal 0 1 -0
    outer loop
      vertex 59.7 -2.7 0
      vertex 29.95 -2.7 6.45
      vertex 59.7 -2.7 11
    endloop
  endfacet
  facet normal 0 1 0
    outer loop
      vertex 29.95 -2.7 6.45
      vertex 59.7 -2.7 0
      vertex 29.879 -2.7 6.00192
    endloop
  endfacet
  facet normal 0 1 0
    outer loop
      vertex 29.879 -2.7 6.00192
      vertex 59.7 -2.7 0
      vertex 29.6731 -2.7 5.59771
    endloop
  endfacet
  facet normal 0 1 0
    outer loop
      vertex 29.6731 -2.7 5.59771
      vertex 59.7 -2.7 0
      vertex 29.3523 -2.7 5.27693
    endloop
  endfacet
  facet normal 0 1 0
    outer loop
      vertex 28.8981 -2.7 5.06305
      vertex 59.7 -2.7 0
      vertex 28.5 -2.7 5
    endloop
  endfacet
  facet normal 0 1 0
    outer loop
      vertex 28.9481 -2.7 5.07097
      vertex 59.7 -2.7 0
      vertex 28.8981 -2.7 5.06305
    endloop
  endfacet
  facet normal 0 1 0
    outer loop
      vertex 29.3523 -2.7 5.27693
      vertex 59.7 -2.7 0
      vertex 28.9481 -2.7 5.07097
    endloop
  endfacet
  facet normal 0 1 -0
    outer loop
      vertex 28.0519 -2.7 7.82903
      vertex -2.7 -2.7 11
      vertex 28.5 -2.7 7.9
    endloop
  endfacet
  facet normal 0 1 -0
    outer loop
      vertex 27.6477 -2.7 7.62307
      vertex -2.7 -2.7 11
      vertex 28.0519 -2.7 7.82903
    endloop
  endfacet
  facet normal 0 1 -0
    outer loop
      vertex 27.3269 -2.7 7.30229
      vertex -2.7 -2.7 11
      vertex 27.6477 -2.7 7.62307
    endloop
  endfacet
  facet normal 0 1 -0
    outer loop
      vertex 27.121 -2.7 6.89807
      vertex -2.7 -2.7 11
      vertex 27.3269 -2.7 7.30229
    endloop
  endfacet
  facet normal 0 1 -0
    outer loop
      vertex 27.05 -2.7 6.45
      vertex -2.7 -2.7 11
      vertex 27.121 -2.7 6.89807
    endloop
  endfacet
  facet normal 0 1 0
    outer loop
      vertex -2.7 -2.7 0
      vertex 27.05 -2.7 6.45
      vertex 27.121 -2.7 6.00192
    endloop
  endfacet
  facet normal 0 1 0
    outer loop
      vertex -2.7 -2.7 0
      vertex 27.121 -2.7 6.00192
      vertex 27.3269 -2.7 5.59771
    endloop
  endfacet
  facet normal 0 1 0
    outer loop
      vertex -2.7 -2.7 0
      vertex 27.3269 -2.7 5.59771
      vertex 27.6477 -2.7 5.27693
    endloop
  endfacet
  facet normal 0 1 0
    outer loop
      vertex -2.7 -2.7 0
      vertex 27.6477 -2.7 5.27693
      vertex 28.0519 -2.7 5.07097
    endloop
  endfacet
  facet normal 0 1 0
    outer loop
      vertex -2.7 -2.7 0
      vertex 28.5 -2.7 5
      vertex 59.7 -2.7 0
    endloop
  endfacet
  facet normal 0 1 0
    outer loop
      vertex 28.5 -2.7 5
      vertex -2.7 -2.7 0
      vertex 28.1019 -2.7 5.06305
    endloop
  endfacet
  facet normal 0 1 0
    outer loop
      vertex 27.05 -2.7 6.45
      vertex -2.7 -2.7 0
      vertex -2.7 -2.7 11
    endloop
  endfacet
  facet normal 0 1 0
    outer loop
      vertex 28.1019 -2.7 5.06305
      vertex -2.7 -2.7 0
      vertex 28.0519 -2.7 5.07097
    endloop
  endfacet
  facet normal 0 -1 0
    outer loop
      vertex -2.7 30.7 11
      vertex 28.5 30.7 7.9
      vertex 59.7 30.7 11
    endloop
  endfacet
  facet normal 0 -1 0
    outer loop
      vertex -2.7 30.7 11
      vertex 28.0519 30.7 7.82903
      vertex 28.5 30.7 7.9
    endloop
  endfacet
  facet normal 0 -1 0
    outer loop
      vertex -2.7 30.7 11
      vertex 27.6477 30.7 7.62307
      vertex 28.0519 30.7 7.82903
    endloop
  endfacet
  facet normal 0 -1 0
    outer loop
      vertex -2.7 30.7 11
      vertex 27.3269 30.7 7.30229
      vertex 27.6477 30.7 7.62307
    endloop
  endfacet
  facet normal 0 -1 0
    outer loop
      vertex -2.7 30.7 11
      vertex 27.121 30.7 6.89807
      vertex 27.3269 30.7 7.30229
    endloop
  endfacet
  facet normal 0 -1 0
    outer loop
      vertex -2.7 30.7 11
      vertex 27.05 30.7 6.45
      vertex 27.121 30.7 6.89807
    endloop
  endfacet
  facet normal 0 -1 0
    outer loop
      vertex -2.7 30.7 0
      vertex 27.05 30.7 6.45
      vertex -2.7 30.7 11
    endloop
  endfacet
  facet normal 0 -1 -0
    outer loop
      vertex 27.05 30.7 6.45
      vertex -2.7 30.7 0
      vertex 27.121 30.7 6.00192
    endloop
  endfacet
  facet normal 0 -1 -0
    outer loop
      vertex 27.121 30.7 6.00192
      vertex -2.7 30.7 0
      vertex 27.3269 30.7 5.59771
    endloop
  endfacet
  facet normal 0 -1 -0
    outer loop
      vertex 27.3269 30.7 5.59771
      vertex -2.7 30.7 0
      vertex 27.6477 30.7 5.27693
    endloop
  endfacet
  facet normal 0 -1 -0
    outer loop
      vertex 28.45 30.7 5.00792
      vertex -2.7 30.7 0
      vertex 28.5 30.7 5
    endloop
  endfacet
  facet normal 0 -1 -0
    outer loop
      vertex 28.0519 30.7 5.07097
      vertex -2.7 30.7 0
      vertex 28.45 30.7 5.00792
    endloop
  endfacet
  facet normal 0 -1 -0
    outer loop
      vertex 27.6477 30.7 5.27693
      vertex -2.7 30.7 0
      vertex 28.0519 30.7 5.07097
    endloop
  endfacet
  facet normal 0 -1 0
    outer loop
      vertex 28.9481 30.7 7.82903
      vertex 59.7 30.7 11
      vertex 28.5 30.7 7.9
    endloop
  endfacet
  facet normal 0 -1 0
    outer loop
      vertex 29.3523 30.7 7.62307
      vertex 59.7 30.7 11
      vertex 28.9481 30.7 7.82903
    endloop
  endfacet
  facet normal 0 -1 0
    outer loop
      vertex 29.6731 30.7 7.30229
      vertex 59.7 30.7 11
      vertex 29.3523 30.7 7.62307
    endloop
  endfacet
  facet normal 0 -1 0
    outer loop
      vertex 29.879 30.7 6.89807
      vertex 59.7 30.7 11
      vertex 29.6731 30.7 7.30229
    endloop
  endfacet
  facet normal 0 -1 0
    outer loop
      vertex 29.95 30.7 6.45
      vertex 59.7 30.7 11
      vertex 29.879 30.7 6.89807
    endloop
  endfacet
  facet normal 0 -1 0
    outer loop
      vertex 59.7 30.7 0
      vertex 29.95 30.7 6.45
      vertex 29.879 30.7 6.00192
    endloop
  endfacet
  facet normal 0 -1 0
    outer loop
      vertex 59.7 30.7 0
      vertex 29.879 30.7 6.00192
      vertex 29.6731 30.7 5.59771
    endloop
  endfacet
  facet normal 0 -1 0
    outer loop
      vertex 59.7 30.7 0
      vertex 29.6731 30.7 5.59771
      vertex 29.3523 30.7 5.27693
    endloop
  endfacet
  facet normal 0 -1 0
    outer loop
      vertex 59.7 30.7 0
      vertex 29.3523 30.7 5.27693
      vertex 28.9481 30.7 5.07097
    endloop
  endfacet
  facet normal 0 -1 0
    outer loop
      vertex 59.7 30.7 0
      vertex 28.5 30.7 5
      vertex -2.7 30.7 0
    endloop
  endfacet
  facet normal 0 -1 0
    outer loop
      vertex 28.5 30.7 5
      vertex 59.7 30.7 0
      vertex 28.55 30.7 5.00792
    endloop
  endfacet
  facet normal 0 -1 0
    outer loop
      vertex 29.95 30.7 6.45
      vertex 59.7 30.7 0
      vertex 59.7 30.7 11
    endloop
  endfacet
  facet normal 0 -1 0
    outer loop
      vertex 28.55 30.7 5.00792
      vertex 59.7 30.7 0
      vertex 28.9481 30.7 5.07097
    endloop
  endfacet
  facet normal -0.987688 0 -0.156436
    outer loop
      vertex 29.95 -5 6.45
      vertex 29.879 -2.7 6.89807
      vertex 29.95 -2.7 6.45
    endloop
  endfacet
  facet normal -0.987688 -0 -0.156436
    outer loop
      vertex 29.879 -2.7 6.89807
      vertex 29.95 -5 6.45
      vertex 29.879 -5 6.89807
    endloop
  endfacet
  facet normal -0.987688 0 -0.156436
    outer loop
      vertex 29.95 30.7 6.45
      vertex 29.879 33 6.89807
      vertex 29.95 33 6.45
    endloop
  endfacet
  facet normal -0.987688 -0 -0.156436
    outer loop
      vertex 29.879 33 6.89807
      vertex 29.95 30.7 6.45
      vertex 29.879 30.7 6.89807
    endloop
  endfacet
  facet normal -0.891005 0 -0.453994
    outer loop
      vertex 29.879 -5 6.89807
      vertex 29.6731 -2.7 7.30229
      vertex 29.879 -2.7 6.89807
    endloop
  endfacet
  facet normal -0.891005 -0 -0.453994
    outer loop
      vertex 29.6731 -2.7 7.30229
      vertex 29.879 -5 6.89807
      vertex 29.6731 -5 7.30229
    endloop
  endfacet
  facet normal -0.891005 0 -0.453994
    outer loop
      vertex 29.879 30.7 6.89807
      vertex 29.6731 33 7.30229
      vertex 29.879 33 6.89807
    endloop
  endfacet
  facet normal -0.891005 -0 -0.453994
    outer loop
      vertex 29.6731 33 7.30229
      vertex 29.879 30.7 6.89807
      vertex 29.6731 30.7 7.30229
    endloop
  endfacet
  facet normal 0.156434 0 -0.987688
    outer loop
      vertex 28.0519 -5 7.82903
      vertex 28.5 -2.7 7.9
      vertex 28.5 -5 7.9
    endloop
  endfacet
  facet normal 0.156434 0 -0.987688
    outer loop
      vertex 28.5 -2.7 7.9
      vertex 28.0519 -5 7.82903
      vertex 28.0519 -2.7 7.82903
    endloop
  endfacet
  facet normal 0.156434 0 -0.987688
    outer loop
      vertex 28.0519 30.7 7.82903
      vertex 28.5 33 7.9
      vertex 28.5 30.7 7.9
    endloop
  endfacet
  facet normal 0.156434 0 -0.987688
    outer loop
      vertex 28.5 33 7.9
      vertex 28.0519 30.7 7.82903
      vertex 28.0519 33 7.82903
    endloop
  endfacet
  facet normal -0.156437 0 0.987688
    outer loop
      vertex 28.9481 -2.7 5.07097
      vertex 28.922 -5 5.06684
      vertex 28.9481 -5 5.07097
    endloop
  endfacet
  facet normal -0.156435 -1.7647e-008 0.987688
    outer loop
      vertex 28.922 -5 5.06684
      vertex 28.9481 -2.7 5.07097
      vertex 28.8981 -2.7 5.06305
    endloop
  endfacet
  facet normal -0.156436 0 0.987688
    outer loop
      vertex 28.9481 33 5.07097
      vertex 28.55 30.7 5.00792
      vertex 28.9481 30.7 5.07097
    endloop
  endfacet
  facet normal -0.156436 -2.08524e-008 0.987688
    outer loop
      vertex 28.55 30.7 5.00792
      vertex 28.9481 33 5.07097
      vertex 28.5261 33 5.00413
    endloop
  endfacet
  facet normal -0.453992 0 0.891006
    outer loop
      vertex 28.9481 -2.7 5.07097
      vertex 29.3523 -5 5.27693
      vertex 29.3523 -2.7 5.27693
    endloop
  endfacet
  facet normal -0.453992 0 0.891006
    outer loop
      vertex 29.3523 -5 5.27693
      vertex 28.9481 -2.7 5.07097
      vertex 28.9481 -5 5.07097
    endloop
  endfacet
  facet normal -0.453992 0 0.891006
    outer loop
      vertex 28.9481 33 5.07097
      vertex 29.3523 30.7 5.27693
      vertex 29.3523 33 5.27693
    endloop
  endfacet
  facet normal -0.453992 0 0.891006
    outer loop
      vertex 29.3523 30.7 5.27693
      vertex 28.9481 33 5.07097
      vertex 28.9481 30.7 5.07097
    endloop
  endfacet
  facet normal -0.453992 0 -0.891006
    outer loop
      vertex 28.9481 -5 7.82903
      vertex 29.3523 -2.7 7.62307
      vertex 29.3523 -5 7.62307
    endloop
  endfacet
  facet normal -0.453992 0 -0.891006
    outer loop
      vertex 29.3523 -2.7 7.62307
      vertex 28.9481 -5 7.82903
      vertex 28.9481 -2.7 7.82903
    endloop
  endfacet
  facet normal -0.453992 0 -0.891006
    outer loop
      vertex 28.9481 30.7 7.82903
      vertex 29.3523 33 7.62307
      vertex 29.3523 30.7 7.62307
    endloop
  endfacet
  facet normal -0.453992 0 -0.891006
    outer loop
      vertex 29.3523 33 7.62307
      vertex 28.9481 30.7 7.82903
      vertex 28.9481 33 7.82903
    endloop
  endfacet
  facet normal 0.45399 0 -0.891007
    outer loop
      vertex 27.6477 -5 7.62307
      vertex 28.0519 -2.7 7.82903
      vertex 28.0519 -5 7.82903
    endloop
  endfacet
  facet normal 0.45399 0 -0.891007
    outer loop
      vertex 28.0519 -2.7 7.82903
      vertex 27.6477 -5 7.62307
      vertex 27.6477 -2.7 7.62307
    endloop
  endfacet
  facet normal 0.45399 0 -0.891007
    outer loop
      vertex 27.6477 30.7 7.62307
      vertex 28.0519 33 7.82903
      vertex 28.0519 30.7 7.82903
    endloop
  endfacet
  facet normal 0.45399 0 -0.891007
    outer loop
      vertex 28.0519 33 7.82903
      vertex 27.6477 30.7 7.62307
      vertex 27.6477 33 7.62307
    endloop
  endfacet
  facet normal 0.156441 4.99211e-008 0.987687
    outer loop
      vertex 28.0519 -2.7 5.07097
      vertex 28.078 -5 5.06684
      vertex 28.1019 -2.7 5.06305
    endloop
  endfacet
  facet normal 0.156437 0 0.987688
    outer loop
      vertex 28.078 -5 5.06684
      vertex 28.0519 -2.7 5.07097
      vertex 28.0519 -5 5.07097
    endloop
  endfacet
  facet normal 0.156436 -2.08524e-008 0.987688
    outer loop
      vertex 28.0519 33 5.07097
      vertex 28.45 30.7 5.00792
      vertex 28.4739 33 5.00413
    endloop
  endfacet
  facet normal 0.156436 0 0.987688
    outer loop
      vertex 28.45 30.7 5.00792
      vertex 28.0519 33 5.07097
      vertex 28.0519 30.7 5.07097
    endloop
  endfacet
  facet normal 0.891006 -0 0.453991
    outer loop
      vertex 27.121 -5 6.00192
      vertex 27.3269 -2.7 5.59771
      vertex 27.121 -2.7 6.00192
    endloop
  endfacet
  facet normal 0.891006 0 0.453991
    outer loop
      vertex 27.3269 -2.7 5.59771
      vertex 27.121 -5 6.00192
      vertex 27.3269 -5 5.59771
    endloop
  endfacet
  facet normal 0.891006 -0 0.453991
    outer loop
      vertex 27.121 30.7 6.00192
      vertex 27.3269 33 5.59771
      vertex 27.121 33 6.00192
    endloop
  endfacet
  facet normal 0.891006 0 0.453991
    outer loop
      vertex 27.3269 33 5.59771
      vertex 27.121 30.7 6.00192
      vertex 27.3269 30.7 5.59771
    endloop
  endfacet
  facet normal -0.707108 0 -0.707106
    outer loop
      vertex 29.6731 -5 7.30229
      vertex 29.3523 -2.7 7.62307
      vertex 29.6731 -2.7 7.30229
    endloop
  endfacet
  facet normal -0.707108 -0 -0.707106
    outer loop
      vertex 29.3523 -2.7 7.62307
      vertex 29.6731 -5 7.30229
      vertex 29.3523 -5 7.62307
    endloop
  endfacet
  facet normal -0.707108 0 -0.707106
    outer loop
      vertex 29.6731 30.7 7.30229
      vertex 29.3523 33 7.62307
      vertex 29.6731 33 7.30229
    endloop
  endfacet
  facet normal -0.707108 -0 -0.707106
    outer loop
      vertex 29.3523 33 7.62307
      vertex 29.6731 30.7 7.30229
      vertex 29.3523 30.7 7.62307
    endloop
  endfacet
  facet normal -0.156434 0 -0.987688
    outer loop
      vertex 28.5 -5 7.9
      vertex 28.9481 -2.7 7.82903
      vertex 28.9481 -5 7.82903
    endloop
  endfacet
  facet normal -0.156434 0 -0.987688
    outer loop
      vertex 28.9481 -2.7 7.82903
      vertex 28.5 -5 7.9
      vertex 28.5 -2.7 7.9
    endloop
  endfacet
  facet normal -0.156434 0 -0.987688
    outer loop
      vertex 28.5 30.7 7.9
      vertex 28.9481 33 7.82903
      vertex 28.9481 30.7 7.82903
    endloop
  endfacet
  facet normal -0.156434 0 -0.987688
    outer loop
      vertex 28.9481 33 7.82903
      vertex 28.5 30.7 7.9
      vertex 28.5 33 7.9
    endloop
  endfacet
  facet normal 0.987688 0 -0.156436
    outer loop
      vertex 27.121 -5 6.89807
      vertex 27.05 -2.7 6.45
      vertex 27.121 -2.7 6.89807
    endloop
  endfacet
  facet normal 0.987688 0 -0.156436
    outer loop
      vertex 27.05 -2.7 6.45
      vertex 27.121 -5 6.89807
      vertex 27.05 -5 6.45
    endloop
  endfacet
  facet normal 0.987688 0 -0.156436
    outer loop
      vertex 27.121 30.7 6.89807
      vertex 27.05 33 6.45
      vertex 27.121 33 6.89807
    endloop
  endfacet
  facet normal 0.987688 0 -0.156436
    outer loop
      vertex 27.05 33 6.45
      vertex 27.121 30.7 6.89807
      vertex 27.05 30.7 6.45
    endloop
  endfacet
  facet normal 0.987688 -0 0.156435
    outer loop
      vertex 27.05 -5 6.45
      vertex 27.121 -2.7 6.00192
      vertex 27.05 -2.7 6.45
    endloop
  endfacet
  facet normal 0.987688 0 0.156435
    outer loop
      vertex 27.121 -2.7 6.00192
      vertex 27.05 -5 6.45
      vertex 27.121 -5 6.00192
    endloop
  endfacet
  facet normal 0.987688 -0 0.156435
    outer loop
      vertex 27.05 30.7 6.45
      vertex 27.121 33 6.00192
      vertex 27.05 33 6.45
    endloop
  endfacet
  facet normal 0.987688 0 0.156435
    outer loop
      vertex 27.121 33 6.00192
      vertex 27.05 30.7 6.45
      vertex 27.121 30.7 6.00192
    endloop
  endfacet
  facet normal -0.707107 0 0.707107
    outer loop
      vertex 29.3523 -5 5.27693
      vertex 29.6731 -2.7 5.59771
      vertex 29.3523 -2.7 5.27693
    endloop
  endfacet
  facet normal -0.707107 0 0.707107
    outer loop
      vertex 29.6731 -2.7 5.59771
      vertex 29.3523 -5 5.27693
      vertex 29.6731 -5 5.59771
    endloop
  endfacet
  facet normal -0.707107 0 0.707107
    outer loop
      vertex 29.3523 30.7 5.27693
      vertex 29.6731 33 5.59771
      vertex 29.3523 33 5.27693
    endloop
  endfacet
  facet normal -0.707107 0 0.707107
    outer loop
      vertex 29.6731 33 5.59771
      vertex 29.3523 30.7 5.27693
      vertex 29.6731 30.7 5.59771
    endloop
  endfacet
  facet normal -0.987688 0 0.156435
    outer loop
      vertex 29.879 -5 6.00192
      vertex 29.95 -2.7 6.45
      vertex 29.879 -2.7 6.00192
    endloop
  endfacet
  facet normal -0.987688 0 0.156435
    outer loop
      vertex 29.95 -2.7 6.45
      vertex 29.879 -5 6.00192
      vertex 29.95 -5 6.45
    endloop
  endfacet
  facet normal -0.987688 0 0.156435
    outer loop
      vertex 29.879 30.7 6.00192
      vertex 29.95 33 6.45
      vertex 29.879 33 6.00192
    endloop
  endfacet
  facet normal -0.987688 0 0.156435
    outer loop
      vertex 29.95 33 6.45
      vertex 29.879 30.7 6.00192
      vertex 29.95 30.7 6.45
    endloop
  endfacet
  facet normal 0.156433 0 0.987689
    outer loop
      vertex 28.1019 -2.7 5.06305
      vertex 28.5 -5 5
      vertex 28.5 -2.7 5
    endloop
  endfacet
  facet normal 0.156434 1.32134e-007 0.987688
    outer loop
      vertex 28.5 -5 5
      vertex 28.1019 -2.7 5.06305
      vertex 28.078 -5 5.06684
    endloop
  endfacet
  facet normal 0.156437 0 0.987688
    outer loop
      vertex 28.4739 33 5.00413
      vertex 28.5 30.7 5
      vertex 28.5 33 5
    endloop
  endfacet
  facet normal 0.156435 -1.7647e-008 0.987688
    outer loop
      vertex 28.5 30.7 5
      vertex 28.4739 33 5.00413
      vertex 28.45 30.7 5.00792
    endloop
  endfacet
  facet normal -0.156434 0 0.987688
    outer loop
      vertex 28.5 -5 5
      vertex 28.8981 -2.7 5.06305
      vertex 28.5 -2.7 5
    endloop
  endfacet
  facet normal -0.156434 2.40618e-009 0.987688
    outer loop
      vertex 28.8981 -2.7 5.06305
      vertex 28.5 -5 5
      vertex 28.922 -5 5.06684
    endloop
  endfacet
  facet normal -0.156437 0 0.987688
    outer loop
      vertex 28.5 30.7 5
      vertex 28.5261 33 5.00413
      vertex 28.5 33 5
    endloop
  endfacet
  facet normal -0.156435 -1.7647e-008 0.987688
    outer loop
      vertex 28.5261 33 5.00413
      vertex 28.5 30.7 5
      vertex 28.55 30.7 5.00792
    endloop
  endfacet
  facet normal 0.707108 0 -0.707106
    outer loop
      vertex 27.6477 -5 7.62307
      vertex 27.3269 -2.7 7.30229
      vertex 27.6477 -2.7 7.62307
    endloop
  endfacet
  facet normal 0.707108 0 -0.707106
    outer loop
      vertex 27.3269 -2.7 7.30229
      vertex 27.6477 -5 7.62307
      vertex 27.3269 -5 7.30229
    endloop
  endfacet
  facet normal 0.707108 0 -0.707106
    outer loop
      vertex 27.6477 30.7 7.62307
      vertex 27.3269 33 7.30229
      vertex 27.6477 33 7.62307
    endloop
  endfacet
  facet normal 0.707108 0 -0.707106
    outer loop
      vertex 27.3269 33 7.30229
      vertex 27.6477 30.7 7.62307
      vertex 27.3269 30.7 7.30229
    endloop
  endfacet
  facet normal 0.891006 0 -0.453991
    outer loop
      vertex 27.3269 -5 7.30229
      vertex 27.121 -2.7 6.89807
      vertex 27.3269 -2.7 7.30229
    endloop
  endfacet
  facet normal 0.891006 0 -0.453991
    outer loop
      vertex 27.121 -2.7 6.89807
      vertex 27.3269 -5 7.30229
      vertex 27.121 -5 6.89807
    endloop
  endfacet
  facet normal 0.891006 0 -0.453991
    outer loop
      vertex 27.3269 30.7 7.30229
      vertex 27.121 33 6.89807
      vertex 27.3269 33 7.30229
    endloop
  endfacet
  facet normal 0.891006 0 -0.453991
    outer loop
      vertex 27.121 33 6.89807
      vertex 27.3269 30.7 7.30229
      vertex 27.121 30.7 6.89807
    endloop
  endfacet
  facet normal 0.707107 -0 0.707107
    outer loop
      vertex 27.3269 -5 5.59771
      vertex 27.6477 -2.7 5.27693
      vertex 27.3269 -2.7 5.59771
    endloop
  endfacet
  facet normal 0.707107 0 0.707107
    outer loop
      vertex 27.6477 -2.7 5.27693
      vertex 27.3269 -5 5.59771
      vertex 27.6477 -5 5.27693
    endloop
  endfacet
  facet normal 0.707107 -0 0.707107
    outer loop
      vertex 27.3269 30.7 5.59771
      vertex 27.6477 33 5.27693
      vertex 27.3269 33 5.59771
    endloop
  endfacet
  facet normal 0.707107 0 0.707107
    outer loop
      vertex 27.6477 33 5.27693
      vertex 27.3269 30.7 5.59771
      vertex 27.6477 30.7 5.27693
    endloop
  endfacet
  facet normal 0.45399 0 0.891007
    outer loop
      vertex 27.6477 -2.7 5.27693
      vertex 28.0519 -5 5.07097
      vertex 28.0519 -2.7 5.07097
    endloop
  endfacet
  facet normal 0.45399 0 0.891007
    outer loop
      vertex 28.0519 -5 5.07097
      vertex 27.6477 -2.7 5.27693
      vertex 27.6477 -5 5.27693
    endloop
  endfacet
  facet normal 0.45399 0 0.891007
    outer loop
      vertex 27.6477 33 5.27693
      vertex 28.0519 30.7 5.07097
      vertex 28.0519 33 5.07097
    endloop
  endfacet
  facet normal 0.45399 0 0.891007
    outer loop
      vertex 28.0519 30.7 5.07097
      vertex 27.6477 33 5.27693
      vertex 27.6477 30.7 5.27693
    endloop
  endfacet
  facet normal -0.891005 0 0.453994
    outer loop
      vertex 29.6731 -5 5.59771
      vertex 29.879 -2.7 6.00192
      vertex 29.6731 -2.7 5.59771
    endloop
  endfacet
  facet normal -0.891005 0 0.453994
    outer loop
      vertex 29.879 -2.7 6.00192
      vertex 29.6731 -5 5.59771
      vertex 29.879 -5 6.00192
    endloop
  endfacet
  facet normal -0.891005 0 0.453994
    outer loop
      vertex 29.6731 30.7 5.59771
      vertex 29.879 33 6.00192
      vertex 29.6731 33 5.59771
    endloop
  endfacet
  facet normal -0.891005 0 0.453994
    outer loop
      vertex 29.879 33 6.00192
      vertex 29.6731 30.7 5.59771
      vertex 29.879 30.7 6.00192
    endloop
  endfacet
endsolid OpenSCAD_Model
